
<svg width="73px" height="80px" viewBox="0 0 73 80" version="1.1" xmlns="http://www.w3.org/2000/svg" xmlns:xlink="http://www.w3.org/1999/xlink">
    <!-- Generator: Sketch 49.3 (51167) - http://www.bohemiancoding.com/sketch -->
    <desc>Created with Sketch.</desc>
    <defs></defs>
    <g id="Page-1" stroke="none" stroke-width="1" fill="none" fill-rule="evenodd">
        <g id="Resend-Alert" transform="translate(-151.000000, -199.000000)" fill-rule="nonzero">
            <g id="idea">
                <g transform="translate(66.000000, 179.000000)">
                    <g transform="translate(85.000000, 20.000000)">
                        <g id="Group-5">
                            <path d="M72.0645161,53.2903226 C68.3006452,44.6451613 69.4154839,37.0322581 69.4154839,34.2283871 C69.5302593,29.2234044 67.5928126,24.3892807 64.0531905,20.8489275 C60.5135685,17.3085743 55.679845,15.3701293 50.6748387,15.483871 C38.9045161,15.483871 30.0296774,23.803871 30.0296774,34.8387097 C30.0296774,41.3509677 31.836129,46.9677419 33.8490323,52.6206452 C35.6150588,57.5603648 35.8724154,62.9136505 34.5883871,68 L31.9729032,78.3909677 C31.8745045,78.7769998 31.9599357,79.186839 32.2043749,79.5014063 C32.4488141,79.8159735 32.8248503,79.9999938 33.2232258,80 L55.836129,80 C56.5487545,80 57.1264516,79.4223029 57.1264516,78.7096774 L57.1264516,67.763871 L63.5341935,67.763871 C64.5721146,67.7640151 65.5666152,67.3473379 66.2944459,66.6073767 C67.0222766,65.8674155 67.42246,64.8661639 67.4051613,63.8283871 L67.3019355,57.6670968 L70.7367742,56.4 C71.3359045,56.1771572 71.8172696,55.7181079 72.0682798,55.1302219 C72.3192901,54.5423359 72.3179294,53.8771767 72.0645161,53.2903226 Z M49.3845161,43.9341935 C44.734971,43.9327684 40.9667921,40.162664 40.9677421,35.5131188 C40.9686921,30.8635736 44.7384115,27.0950094 49.3879567,27.0954843 C54.037502,27.0959592 57.8064514,30.8652934 57.8064516,35.5148387 C57.8064517,37.7482376 56.9190609,39.8901247 55.3395673,41.4691342 C53.7600738,43.0481437 51.617915,43.9348781 49.3845161,43.9341935 Z" id="Shape" fill="#007E7A"></path>
                            <path d="M21.9354839,6.4516129 C21.2228584,6.4516129 20.6451613,7.02931 20.6451613,7.74193548 L20.6451613,11.6129032 C20.6451613,12.3255287 21.2228584,12.9032258 21.9354839,12.9032258 C22.6481094,12.9032258 23.2258065,12.3255287 23.2258065,11.6129032 L23.2258065,7.74193548 C23.2258065,7.02931 22.6481094,6.4516129 21.9354839,6.4516129 Z" id="Shape" fill="#121416"></path>
                            <path d="M28.7492874,10.7165304 L26.1686584,13.2971595 C25.6796651,13.8034516 25.6866584,14.6082284 26.1843763,15.1059463 C26.6820942,15.6036642 27.486871,15.6106575 27.9931631,15.1216642 L30.5737921,12.5410352 C30.9092179,12.2170701 31.0437409,11.7373268 30.9256572,11.2861948 C30.8075735,10.8350629 30.4552597,10.482749 30.0041277,10.3646653 C29.5529958,10.2465816 29.0732525,10.3811047 28.7492874,10.7165304 Z" id="Shape" fill="#121416"></path>
                            <path d="M15.1216803,10.7165304 C14.7977153,10.3811047 14.3179719,10.2465816 13.86684,10.3646653 C13.4157081,10.482749 13.0633942,10.8350629 12.9453105,11.2861948 C12.8272268,11.7373268 12.9617498,12.2170701 13.2971756,12.5410352 L15.8778046,15.1216642 C16.3840968,15.6106575 17.1888735,15.6036642 17.6865915,15.1059463 C18.1843094,14.6082284 18.1913027,13.8034516 17.7023093,13.2971595 L15.1216803,10.7165304 Z" id="Shape" fill="#121416"></path>
                            <path d="M19.4330047,0.143708383 C10.5013087,1.16313303 3.09773323,7.53424379 0.757086706,16.2151786 C-1.58355981,24.8961134 1.61341694,34.1263369 8.82163283,39.4989148 C10.3432844,40.5931073 11.3408029,42.2714773 11.5747839,44.1312161 C10.0573243,44.6878231 9.04546726,46.1289248 9.03708561,47.7454434 L9.03708561,50.3261127 C9.03708561,52.4640091 10.7699268,54.1971166 12.9074948,54.1971166 L13.0107057,54.1971166 C13.6484137,58.6381737 17.4525161,61.9354839 21.9384495,61.9354839 C26.424383,61.9354839 30.2284854,58.6381737 30.8661934,54.1971166 L30.9694043,54.1971166 C33.1069723,54.1971166 34.8398135,52.4640091 34.8398135,50.3261127 L34.8398135,47.7454434 C34.8300966,46.1280796 33.8160064,44.6872431 32.2969546,44.1325065 C32.4992747,42.2937713 33.476452,40.6287471 34.9830186,39.5556895 C40.5959291,35.4461643 43.900545,28.8958879 43.8707682,21.9387507 C43.8716094,15.6841456 41.2028384,9.72663145 36.5353786,5.56391485 C31.8679188,1.40119825 25.6457108,-0.570788337 19.4330047,0.143708383 Z M21.9384495,59.3584552 C18.8742455,59.3545864 16.2340246,57.1989728 15.6167812,54.1971166 L28.2601179,54.1971166 C27.6424224,57.198699 25.0024758,59.3540886 21.9384495,59.3584552 Z M32.2595407,50.3261127 C32.2595407,51.0387449 31.6819269,51.6164473 30.9694043,51.6164473 L12.9074948,51.6164473 C12.1949721,51.6164473 11.6173584,51.0387449 11.6173584,50.3261127 L11.6173584,47.7454434 C11.6173584,47.0328113 12.1949721,46.4551088 12.9074948,46.4551088 L30.9694043,46.4551088 C31.6819269,46.4551088 32.2595407,47.0328113 32.2595407,47.7454434 L32.2595407,50.3261127 Z M33.4477563,37.4730894 C31.3490346,38.9772351 29.9928113,41.306504 29.7205523,43.8744395 L23.2285859,43.8744395 L23.2285859,39.758272 C23.2285859,34.8137097 26.6358361,32.4730427 27.9311331,27.1000893 L29.6792679,27.1000893 C31.8168359,27.1000893 33.5496771,25.3669818 33.5496771,23.2290854 C33.5496771,21.0911889 31.8168359,19.3580814 29.6792679,19.3580814 C27.5416999,19.3580814 25.8088587,21.0911889 25.8088587,23.2290854 C25.8088587,23.4652166 25.7907968,23.6807025 25.7804757,23.9052207 C23.2788302,23.1258727 20.599359,23.1258727 18.0977135,23.9052207 C18.0873924,23.6832831 18.0680404,23.4677973 18.0680404,23.2290854 C18.0680404,21.0911889 16.3351991,19.3580814 14.1976312,19.3580814 C12.0600632,19.3580814 10.327222,21.0911889 10.327222,23.2290854 C10.327222,25.3669818 12.0600632,27.1000893 14.1976312,27.1000893 L15.9470561,27.1000893 C17.2371925,32.431752 20.6483131,34.8253227 20.6483131,39.758272 L20.6483131,43.8744395 L14.1473159,43.8744395 C13.8461476,41.2890401 12.474377,38.9485739 10.3659261,37.4227664 C3.0745307,31.9727176 0.568689949,22.17581 4.34759946,13.8933422 C8.12650897,5.61087446 17.1676576,1.08394684 26.0619026,3.02093181 C34.9561476,4.95791678 41.2968517,12.8346979 41.2904954,21.9387507 C41.314428,28.0749357 38.3985722,33.8514145 33.4477563,37.4756701 L33.4477563,37.4730894 Z M18.4550813,26.4987933 C20.7106436,25.6884447 23.1778667,25.6884447 25.433429,26.4987933 C24.7070822,29.5233377 23.162789,31.456259 21.9500608,34.1259614 C20.7463635,31.5143241 19.1685267,29.49366 18.4550813,26.4987933 Z M14.1976312,24.51942 C13.4851085,24.51942 12.9074948,23.9417175 12.9074948,23.2290854 C12.9074948,22.5164532 13.4851085,21.9387507 14.1976312,21.9387507 C14.9101538,21.9387507 15.4877676,22.5164532 15.4877676,23.2290854 C15.4877676,23.6781218 15.5135703,24.1013516 15.5445336,24.51942 L14.1976312,24.51942 Z M29.6792679,24.51942 L28.3323655,24.51942 C28.3633288,24.1013516 28.3891315,23.6781218 28.3891315,23.2290854 C28.3891315,22.5164532 28.9667452,21.9387507 29.6792679,21.9387507 C30.3917905,21.9387507 30.9694043,22.5164532 30.9694043,23.2290854 C30.9694043,23.9417175 30.3917905,24.51942 29.6792679,24.51942 Z" id="Shape" fill="#121416"></path>
                        </g>
                    </g>
                </g>
            </g>
        </g>
    </g>
</svg>