
<svg width="42px" height="50px" viewBox="0 0 42 50" version="1.1" xmlns="http://www.w3.org/2000/svg" xmlns:xlink="http://www.w3.org/1999/xlink">
    <!-- Generator: Sketch 49.3 (51167) - http://www.bohemiancoding.com/sketch -->
    <desc>Created with Sketch.</desc>
    <defs></defs>
    <g id="Page-1" stroke="none" stroke-width="1" fill="none" fill-rule="evenodd">
        <g id="Support" transform="translate(-50.000000, -491.000000)" fill="#007E7A" fill-rule="nonzero">
            <g id="Group-2" transform="translate(50.000000, 491.000000)">
                <path d="M30.5,6 L28.5,6 C27.9477153,6 27.5,5.55228475 27.5,5 C27.5,4.44771525 27.9477153,4 28.5,4 L30.5,4 C31.0522847,4 31.5,4.44771525 31.5,5 C31.5,5.55228475 31.0522847,6 30.5,6 Z" id="Shape"></path>
                <path d="M24.5,6 L18.5,6 C17.9477153,6 17.5,5.55228475 17.5,5 C17.5,4.44771525 17.9477153,4 18.5,4 L24.5,4 C25.0522847,4 25.5,4.44771525 25.5,5 C25.5,5.55228475 25.0522847,6 24.5,6 Z" id="Shape"></path>
                <path d="M22.5,44 L26.5,44 C27.0522847,44 27.5,44.4477153 27.5,45 C27.5,45.5522847 27.0522847,46 26.5,46 L22.5,46 C21.9477153,46 21.5,45.5522847 21.5,45 C21.5,44.4477153 21.9477153,44 22.5,44 Z" id="Shape"></path>
                <path d="M1.5,24 L4.5,24 L4.5,35 C4.5,36.6568542 5.84314575,38 7.5,38 L7.5,47 C7.5,48.6568542 8.84314575,50 10.5,50 L38.5,50 C40.1568542,50 41.5,48.6568542 41.5,47 L41.5,3 C41.5,1.34314575 40.1568542,2.22044605e-16 38.5,0 L10.5,0 C8.84314575,-2.22044605e-16 7.5,1.34314575 7.5,3 L7.5,12.685 L0.682,22.427 C0.468559869,22.73228 0.442488717,23.1308913 0.614346956,23.4613717 C0.786205196,23.7918522 1.12750537,23.9994209 1.5,24 Z M39.5,3 L39.5,8 L9.5,8 L9.5,3 C9.5,2.44771525 9.94771525,2 10.5,2 L38.5,2 C39.0522847,2 39.5,2.44771525 39.5,3 Z M9.5,47 L9.5,42 L39.5,42 L39.5,47 C39.5,47.5522847 39.0522847,48 38.5,48 L10.5,48 C9.94771525,48 9.5,47.5522847 9.5,47 Z M9.5,38 C11.1568542,38 12.5,36.6568542 12.5,35 L12.5,24 L15.5,24 C15.872854,24.0001658 16.2148356,23.7928845 16.3871903,23.4622578 C16.559545,23.1316311 16.5336454,22.7325745 16.32,22.427 L9.5,12.685 L9.5,10 L39.5,10 L39.5,40 L9.5,40 L9.5,38 Z M3.422,22 L8.5,14.744 L13.581,22 L11.5,22 C10.9477153,22 10.5,22.4477153 10.5,23 L10.5,35 C10.5,35.5522847 10.0522847,36 9.5,36 L7.5,36 C6.94771525,36 6.5,35.5522847 6.5,35 L6.5,23 C6.5,22.4477153 6.05228475,22 5.5,22 L3.422,22 Z" id="Shape"></path>
                <path d="M20.5,31 L35.5,31 C36.0522847,31 36.5,31.4477153 36.5,32 C36.5,32.5522847 36.0522847,33 35.5,33 L20.5,33 C19.9477153,33 19.5,32.5522847 19.5,32 C19.5,31.4477153 19.9477153,31 20.5,31 Z" id="Shape"></path>
                <path d="M20.5,24 L35.5,24 C36.0522847,24 36.5,24.4477153 36.5,25 C36.5,25.5522847 36.0522847,26 35.5,26 L20.5,26 C19.9477153,26 19.5,25.5522847 19.5,25 C19.5,24.4477153 19.9477153,24 20.5,24 Z" id="Shape"></path>
                <path d="M20.5,17 L35.5,17 C36.0522847,17 36.5,17.4477153 36.5,18 C36.5,18.5522847 36.0522847,19 35.5,19 L20.5,19 C19.9477153,19 19.5,18.5522847 19.5,18 C19.5,17.4477153 19.9477153,17 20.5,17 Z" id="Shape"></path>
            </g>
        </g>
    </g>
</svg>