
<svg width="15px" height="16px" viewBox="0 0 15 16" version="1.1" xmlns="http://www.w3.org/2000/svg" xmlns:xlink="http://www.w3.org/1999/xlink">
    <!-- Generator: Sketch 49.3 (51167) - http://www.bohemiancoding.com/sketch -->
    <desc>Created with Sketch.</desc>
    <defs></defs>
    <g id="Page-1" stroke="none" stroke-width="1" fill="none" fill-rule="evenodd">
        <g id="Catalogue-Products" transform="translate(-22.000000, -569.000000)" fill="#006864" fill-rule="nonzero">
            <g id="Group-10" transform="translate(22.000000, 569.000000)">
                <path d="M14.8227,3.1776 C14.8203,3.1776 14.8182,3.1743 14.8158,3.1734 L7.6158,0.1734 C7.54188668,0.142566629 7.45871332,0.142566629 7.3848,0.1734 C7.3548,0.186 0.1482,3.1908 0.1782,3.1773 C0.0725278489,3.22778075 0.00380267768,3.33295108 0,3.45 L0,11.85 C-1.01007014e-05,11.9710739 0.0727589155,12.0802866 0.1845,12.1269 L7.3827,15.1269 C7.45661332,15.1577334 7.53978668,15.1577334 7.6137,15.1269 L14.8119,12.1269 C14.9250536,12.0814125 14.9994102,11.9719529 15,11.85 L15,3.45 C14.9965951,3.33315582 14.9281622,3.22801704 14.8227,3.1776 Z M11.19,2.3124 L4.77,4.9875 L3.81,4.5873 L10.23,1.9125 L11.19,2.3124 Z M7.5,0.7749 L9.45,1.5876 L3.03,4.2624 L1.08,3.45 L7.5,0.7749 Z M7.2,14.4 L0.6,11.6499 L0.6,3.9 L7.2,6.6498 L7.2,14.4 Z M7.5,6.1248 L5.55,5.3124 L11.97,2.6376 L13.92,3.45 L7.5,6.1248 Z M14.4,11.6499 L7.8,14.4 L7.8,6.6498 L14.4,3.9 L14.4,11.6499 Z" id="Shape"></path>
                <path d="M3.7155,11.4483 L1.6155,10.5732 C1.51596237,10.5283788 1.39993422,10.5411636 1.31254349,10.6065818 C1.22515276,10.6719999 1.18019428,10.7797251 1.19515418,10.8878587 C1.21011408,10.9959924 1.28263091,11.0874652 1.3845,11.1267 L3.4845,12.0018 C3.58403763,12.0466212 3.70006578,12.0338364 3.78745651,11.9684182 C3.87484724,11.9030001 3.91980572,11.7952749 3.90484582,11.6871413 C3.88988592,11.5790076 3.81736909,11.4875348 3.7155,11.4483 Z" id="Shape"></path>
            </g>
        </g>
    </g>
</svg>