
<svg width="50px" height="50px" viewBox="0 0 50 50" version="1.1" xmlns="http://www.w3.org/2000/svg" xmlns:xlink="http://www.w3.org/1999/xlink">
    <!-- Generator: Sketch 49.3 (51167) - http://www.bohemiancoding.com/sketch -->
    <desc>Created with Sketch.</desc>
    <defs></defs>
    <g id="Page-1" stroke="none" stroke-width="1" fill="none" fill-rule="evenodd">
        <g id="Support" transform="translate(-46.000000, -213.000000)" fill="#007E7A" fill-rule="nonzero">
            <g id="Group-193" transform="translate(46.000000, 213.000000)">
                <path d="M46.4285714,2.64338815e-16 L3.57142857,2.64338815e-16 C1.59898304,-2.64338815e-16 2.64338815e-16,1.59898304 0,3.57142857 L0,46.4285714 C2.64338815e-16,48.401017 1.59898304,50 3.57142857,50 L46.4285714,50 C48.401017,50 50,48.401017 50,46.4285714 L50,3.57142857 C50,1.59898304 48.401017,2.64338815e-16 46.4285714,2.64338815e-16 Z M47.6190476,46.4285714 C47.6190476,47.0860533 47.0860533,47.6190476 46.4285714,47.6190476 L3.57142857,47.6190476 C2.91394673,47.6190476 2.38095238,47.0860533 2.38095238,46.4285714 L2.38095238,3.57142857 C2.38095238,2.91394673 2.91394673,2.38095238 3.57142857,2.38095238 L46.4285714,2.38095238 C47.0860533,2.38095238 47.6190476,2.91394673 47.6190476,3.57142857 L47.6190476,46.4285714 Z" id="Shape"></path>
                <path d="M18.477381,33.6261905 L34.9642857,24.5583333 C36.1053508,23.9305957 36.8142562,22.7315046 36.8142562,21.4291667 C36.8142562,20.1268287 36.1053508,18.9277377 34.9642857,18.3 L18.477381,9.2297619 C17.3708831,8.62105442 16.0251811,8.64196514 14.9381302,9.28475795 C13.8510793,9.92755076 13.1843191,11.0966453 13.1845238,12.3595238 L13.1845238,30.497619 C13.18474,31.7602852 13.8516674,32.9289938 14.9386426,33.5714974 C16.0256178,34.2140009 17.3710692,34.2347956 18.477381,33.6261905 Z M15.5654762,12.3595238 C15.5655483,11.9386351 15.7878574,11.5490656 16.1501824,11.3348977 C16.5125075,11.1207299 16.9609913,11.1137983 17.3297619,11.3166667 L33.8166667,20.3857143 C34.1968202,20.5950205 34.432963,20.9946062 34.432963,21.4285714 C34.432963,21.8625367 34.1968202,22.2621223 33.8166667,22.4714286 L17.3309524,31.5404762 C16.9620989,31.7439391 16.513183,31.7373235 16.1504852,31.5230799 C15.7877873,31.3088363 15.5653162,30.9188672 15.5654762,30.497619 L15.5654762,12.3595238 Z" id="Shape"></path>
                <path d="M42.8571429,40.4761905 L33.3333333,40.4761905 C33.3333333,39.8187086 32.800339,39.2857143 32.1428571,39.2857143 C31.4853753,39.2857143 30.952381,39.8187086 30.952381,40.4761905 L7.14285714,40.4761905 C6.4853753,40.4761905 5.95238095,41.0091848 5.95238095,41.6666667 C5.95238095,42.3241485 6.4853753,42.8571429 7.14285714,42.8571429 L30.952381,42.8571429 C30.952381,43.5146247 31.4853753,44.047619 32.1428571,44.047619 C32.800339,44.047619 33.3333333,43.5146247 33.3333333,42.8571429 L42.8571429,42.8571429 C43.5146247,42.8571429 44.047619,42.3241485 44.047619,41.6666667 C44.047619,41.0091848 43.5146247,40.4761905 42.8571429,40.4761905 Z" id="Shape"></path>
            </g>
        </g>
    </g>
</svg>