
<svg width="15px" height="15px" viewBox="0 0 15 15" version="1.1" xmlns="http://www.w3.org/2000/svg" xmlns:xlink="http://www.w3.org/1999/xlink">
    <!-- Generator: Sketch 49.3 (51167) - http://www.bohemiancoding.com/sketch -->
    <desc>Created with Sketch.</desc>
    <defs></defs>
    <g id="Page-1" stroke="none" stroke-width="1" fill="none" fill-rule="evenodd">
        <g id="Catalogue-Products" transform="translate(-22.000000, -520.000000)" fill="#006864" fill-rule="nonzero">
            <g id="Group-224" transform="translate(22.000000, 520.000000)">
                <path d="M10.5258,4.9833 C10.40865,4.86618542 10.21875,4.86618542 10.1016,4.9833 L7.05,8.0349 L5.4984,6.4833 C5.38125004,6.36618542 5.19134996,6.36618542 5.0742,6.4833 L3.8016,7.7562 C3.68448542,7.87334996 3.68448542,8.06325004 3.8016,8.1804 L6.8379,11.2167 C6.95504996,11.3338146 7.14495004,11.3338146 7.2621,11.2167 L11.7984,6.6804 C11.9155146,6.56325004 11.9155146,6.37334996 11.7984,6.2562 L10.5258,4.9833 Z M7.05,10.5804 L4.4379,7.9683 L5.2863,7.1196 L6.8379,8.67 C6.95504996,8.78711458 7.14495004,8.78711458 7.2621,8.67 L10.3137,5.6196 L11.1621,6.4683 L7.05,10.5804 Z" id="Shape"></path>
                <path d="M7.5,0 C3.35786438,0 5.32907052e-16,3.35786438 0,7.5 C-5.32907052e-16,11.6421356 3.35786438,15 7.5,15 C11.6421356,15 15,11.6421356 15,7.5 C14.9953707,3.3597834 11.6402166,0.00462926977 7.5,0 Z M7.5,14.4 C3.68923523,14.4 0.6,11.3107648 0.6,7.5 C0.6,3.68923523 3.68923523,0.6 7.5,0.6 C11.3107648,0.6 14.4,3.68923523 14.4,7.5 C14.3957015,11.3089828 11.3089828,14.3957015 7.5,14.4 Z" id="Shape"></path>
            </g>
        </g>
    </g>
</svg>